<?xml version="1.0"?>
<!-- Generated by SVGo and Plotinum VG -->
<svg width="1296pt" height="432pt" viewBox="0 0 1296 432"
	xmlns="http://www.w3.org/2000/svg"
	xmlns:xlink="http://www.w3.org/1999/xlink">
<g transform="scale(1, -1) translate(0, -432)">
<path d="M0,0L432,0L432,432L0,432Z" style="fill:#FFFFFF" />
<text x="246.67" y="-3.9023" transform="scale(1, -1)"
	style="font-family:Liberation Serif;font-variant:normal;font-weight:normal;font-style:normal;font-size:12px">BaseScore</text>
<g transform="rotate(40.10704565915762)">
<text x="22.939" y="-1.9704" transform="scale(1, -1)"
	style="font-family:Liberation Serif;font-variant:normal;font-weight:normal;font-style:normal;font-size:10px">github.com/facebookincubator/nvdtools</text>
</g>
<g transform="rotate(40.10704565915762)">
<text x="132.02" y="43.128" transform="scale(1, -1)"
	style="font-family:Liberation Serif;font-variant:normal;font-weight:normal;font-style:normal;font-size:10px">github.com/goark/go-cvss</text>
</g>
<g transform="rotate(40.10704565915762)">
<text x="173.9" y="88.227" transform="scale(1, -1)"
	style="font-family:Liberation Serif;font-variant:normal;font-weight:normal;font-style:normal;font-size:10px">github.com/pandatix/go-cvss</text>
</g>
<g transform="rotate(40.10704565915762)">
<text x="245.21" y="133.33" transform="scale(1, -1)"
	style="font-family:Liberation Serif;font-variant:normal;font-weight:normal;font-style:normal;font-size:10px">github.com/slimsec/cvss</text>
</g>
<g transform="rotate(40.10704565915762)">
<text x="279.31" y="178.42" transform="scale(1, -1)"
	style="font-family:Liberation Serif;font-variant:normal;font-weight:normal;font-style:normal;font-size:10px">github.com/umisama/go-cvss</text>
</g>
<g transform="rotate(90)">
<text x="178.85" y="9.3867" transform="scale(1, -1)"
	style="font-family:Liberation Serif;font-variant:normal;font-weight:normal;font-style:normal;font-size:12px">Log of % per the max value of this metric.</text>
</g>
<text x="15.885" y="-127.35" transform="scale(1, -1)"
	style="font-family:Liberation Serif;font-variant:normal;font-weight:normal;font-style:normal;font-size:10px">0</text>
<text x="15.885" y="-258.66" transform="scale(1, -1)"
	style="font-family:Liberation Serif;font-variant:normal;font-weight:normal;font-style:normal;font-size:10px">2</text>
<text x="15.885" y="-389.98" transform="scale(1, -1)"
	style="font-family:Liberation Serif;font-variant:normal;font-weight:normal;font-style:normal;font-size:10px">4</text>
<path d="M23.385,129.63L31.385,129.63" style="fill:none;stroke:#000000;stroke-width:0.5" />
<path d="M23.385,260.95L31.385,260.95" style="fill:none;stroke:#000000;stroke-width:0.5" />
<path d="M23.385,392.27L31.385,392.27" style="fill:none;stroke:#000000;stroke-width:0.5" />
<path d="M27.385,195.29L31.385,195.29" style="fill:none;stroke:#000000;stroke-width:0.5" />
<path d="M27.385,326.61L31.385,326.61" style="fill:none;stroke:#000000;stroke-width:0.5" />
<path d="M31.385,129.63L31.385,432" style="fill:none;stroke:#000000;stroke-width:0.5" />
<path d="M111.98,129.63L111.98,129.63L123.98,129.63L123.98,129.63Z" style="fill:#4272C5" />
<path d="M181.98,129.63L181.98,129.63L193.98,129.63L193.98,129.63Z" style="fill:#4272C5" />
<path d="M251.99,129.63L251.99,129.63L263.99,129.63L263.99,129.63Z" style="fill:#4272C5" />
<path d="M321.99,129.63L321.99,432L333.99,432L333.99,129.63Z" style="fill:#4272C5" />
<path d="M392,129.63L392,129.63L404,129.63L404,129.63Z" style="fill:#4272C5" />
<path d="M125.98,129.63L125.98,129.63L137.98,129.63L137.98,129.63Z" style="fill:#E67F34" />
<path d="M195.98,129.63L195.98,129.63L207.98,129.63L207.98,129.63Z" style="fill:#E67F34" />
<path d="M265.99,129.63L265.99,129.63L277.99,129.63L277.99,129.63Z" style="fill:#E67F34" />
<path d="M335.99,129.63L335.99,432L347.99,432L347.99,129.63Z" style="fill:#E67F34" />
<path d="M406,129.63L406,129.63L418,129.63L418,129.63Z" style="fill:#E67F34" />
<path d="M139.98,129.63L139.98,129.63L151.98,129.63L151.98,129.63Z" style="fill:#B4B6B9" />
<path d="M209.98,129.63L209.98,129.63L221.98,129.63L221.98,129.63Z" style="fill:#B4B6B9" />
<path d="M279.99,129.63L279.99,129.63L291.99,129.63L291.99,129.63Z" style="fill:#B4B6B9" />
<path d="M349.99,129.63L349.99,432L361.99,432L361.99,129.63Z" style="fill:#B4B6B9" />
<path d="M420,129.63L420,129.63L432,129.63L432,129.63Z" style="fill:#B4B6B9" />
<path d="M412,419.22L412,429.4L432,429.4L432,419.22Z" style="fill:#4272C5" />
<text x="383" y="-421.83" transform="scale(1, -1)"
	style="font-family:Liberation Serif;font-variant:normal;font-weight:normal;font-style:normal;font-size:12px">ns/op</text>
<path d="M412,409.04L412,419.22L432,419.22L432,409.04Z" style="fill:#E67F34" />
<text x="385.66" y="-411.64" transform="scale(1, -1)"
	style="font-family:Liberation Serif;font-variant:normal;font-weight:normal;font-style:normal;font-size:12px">B/op</text>
<path d="M412,398.85L412,409.04L432,409.04L432,398.85Z" style="fill:#B4B6B9" />
<text x="365.68" y="-401.46" transform="scale(1, -1)"
	style="font-family:Liberation Serif;font-variant:normal;font-weight:normal;font-style:normal;font-size:12px">allocs/op</text>
<path d="M432,0L864,0L864,432L432,432Z" style="fill:#FFFFFF" />
<text x="661.59" y="-3.9023" transform="scale(1, -1)"
	style="font-family:Liberation Serif;font-variant:normal;font-weight:normal;font-style:normal;font-size:12px">ParseVector</text>
<g transform="rotate(40.10704565915762)">
<text x="387.31" y="258.62" transform="scale(1, -1)"
	style="font-family:Liberation Serif;font-variant:normal;font-weight:normal;font-style:normal;font-size:10px">github.com/attwad/gocvss</text>
</g>
<g transform="rotate(40.10704565915762)">
<text x="371.53" y="291.64" transform="scale(1, -1)"
	style="font-family:Liberation Serif;font-variant:normal;font-weight:normal;font-style:normal;font-size:10px">github.com/facebookincubator/nvdtools</text>
</g>
<g transform="rotate(40.10704565915762)">
<text x="466.26" y="324.66" transform="scale(1, -1)"
	style="font-family:Liberation Serif;font-variant:normal;font-weight:normal;font-style:normal;font-size:10px">github.com/goark/go-cvss</text>
</g>
<g transform="rotate(40.10704565915762)">
<text x="493.8" y="357.67" transform="scale(1, -1)"
	style="font-family:Liberation Serif;font-variant:normal;font-weight:normal;font-style:normal;font-size:10px">github.com/pandatix/go-cvss</text>
</g>
<g transform="rotate(40.10704565915762)">
<text x="543.57" y="390.69" transform="scale(1, -1)"
	style="font-family:Liberation Serif;font-variant:normal;font-weight:normal;font-style:normal;font-size:10px">github.com/quay/claircore</text>
</g>
<g transform="rotate(40.10704565915762)">
<text x="570.53" y="423.71" transform="scale(1, -1)"
	style="font-family:Liberation Serif;font-variant:normal;font-weight:normal;font-style:normal;font-size:10px">github.com/umisama/go-cvss</text>
</g>
<g transform="rotate(40.10704565915762)">
<text x="631.95" y="456.73" transform="scale(1, -1)"
	style="font-family:Liberation Serif;font-variant:normal;font-weight:normal;font-style:normal;font-size:10px">github.com/zntrio/mitre</text>
</g>
<g transform="rotate(90)">
<text x="178.85" y="441.39" transform="scale(1, -1)"
	style="font-family:Liberation Serif;font-variant:normal;font-weight:normal;font-style:normal;font-size:12px">Log of % per the max value of this metric.</text>
</g>
<text x="447.88" y="-127.35" transform="scale(1, -1)"
	style="font-family:Liberation Serif;font-variant:normal;font-weight:normal;font-style:normal;font-size:10px">0</text>
<text x="447.88" y="-258.66" transform="scale(1, -1)"
	style="font-family:Liberation Serif;font-variant:normal;font-weight:normal;font-style:normal;font-size:10px">2</text>
<text x="447.88" y="-389.98" transform="scale(1, -1)"
	style="font-family:Liberation Serif;font-variant:normal;font-weight:normal;font-style:normal;font-size:10px">4</text>
<path d="M455.38,129.63L463.38,129.63" style="fill:none;stroke:#000000;stroke-width:0.5" />
<path d="M455.38,260.95L463.38,260.95" style="fill:none;stroke:#000000;stroke-width:0.5" />
<path d="M455.38,392.27L463.38,392.27" style="fill:none;stroke:#000000;stroke-width:0.5" />
<path d="M459.38,195.29L463.38,195.29" style="fill:none;stroke:#000000;stroke-width:0.5" />
<path d="M459.38,326.61L463.38,326.61" style="fill:none;stroke:#000000;stroke-width:0.5" />
<path d="M463.38,129.63L463.38,432" style="fill:none;stroke:#000000;stroke-width:0.5" />
<path d="M516.49,129.63L516.49,140.23L528.49,140.23L528.49,129.63Z" style="fill:#4272C5" />
<path d="M567.74,129.63L567.74,239.98L579.74,239.98L579.74,129.63Z" style="fill:#4272C5" />
<path d="M618.99,129.63L618.99,349.34L630.99,349.34L630.99,129.63Z" style="fill:#4272C5" />
<path d="M670.24,129.63L670.24,129.63L682.24,129.63L682.24,129.63Z" style="fill:#4272C5" />
<path d="M721.5,129.63L721.5,129.63L733.5,129.63L733.5,129.63Z" style="fill:#4272C5" />
<path d="M772.75,129.63L772.75,432L784.75,432L784.75,129.63Z" style="fill:#4272C5" />
<path d="M824,129.63L824,225.88L836,225.88L836,129.63Z" style="fill:#4272C5" />
<path d="M530.49,129.63L530.49,129.63L542.49,129.63L542.49,129.63Z" style="fill:#E67F34" />
<path d="M581.74,129.63L581.74,253.36L593.74,253.36L593.74,129.63Z" style="fill:#E67F34" />
<path d="M632.99,129.63L632.99,287.87L644.99,287.87L644.99,129.63Z" style="fill:#E67F34" />
<path d="M684.24,129.63L684.24,129.63L696.24,129.63L696.24,129.63Z" style="fill:#E67F34" />
<path d="M735.5,129.63L735.5,129.63L747.5,129.63L747.5,129.63Z" style="fill:#E67F34" />
<path d="M786.75,129.63L786.75,432L798.75,432L798.75,129.63Z" style="fill:#E67F34" />
<path d="M838,129.63L838,177.33L850,177.33L850,129.63Z" style="fill:#E67F34" />
<path d="M544.49,129.63L544.49,201.24L556.49,201.24L556.49,129.63Z" style="fill:#B4B6B9" />
<path d="M595.74,129.63L595.74,246.75L607.74,246.75L607.74,129.63Z" style="fill:#B4B6B9" />
<path d="M646.99,129.63L646.99,318.89L658.99,318.89L658.99,129.63Z" style="fill:#B4B6B9" />
<path d="M698.24,129.63L698.24,129.63L710.24,129.63L710.24,129.63Z" style="fill:#B4B6B9" />
<path d="M749.5,129.63L749.5,129.63L761.5,129.63L761.5,129.63Z" style="fill:#B4B6B9" />
<path d="M800.75,129.63L800.75,432L812.75,432L812.75,129.63Z" style="fill:#B4B6B9" />
<path d="M852,129.63L852,273.38L864,273.38L864,129.63Z" style="fill:#B4B6B9" />
<path d="M844,419.22L844,429.4L864,429.4L864,419.22Z" style="fill:#4272C5" />
<text x="815" y="-421.83" transform="scale(1, -1)"
	style="font-family:Liberation Serif;font-variant:normal;font-weight:normal;font-style:normal;font-size:12px">ns/op</text>
<path d="M844,409.04L844,419.22L864,419.22L864,409.04Z" style="fill:#E67F34" />
<text x="817.66" y="-411.64" transform="scale(1, -1)"
	style="font-family:Liberation Serif;font-variant:normal;font-weight:normal;font-style:normal;font-size:12px">B/op</text>
<path d="M844,398.85L844,409.04L864,409.04L864,398.85Z" style="fill:#B4B6B9" />
<text x="797.68" y="-401.46" transform="scale(1, -1)"
	style="font-family:Liberation Serif;font-variant:normal;font-weight:normal;font-style:normal;font-size:12px">allocs/op</text>
<path d="M864,0L1296,0L1296,432L864,432Z" style="fill:#FFFFFF" />
<text x="1106.6" y="-3.9023" transform="scale(1, -1)"
	style="font-family:Liberation Serif;font-variant:normal;font-weight:normal;font-style:normal;font-size:12px">Vector</text>
<g transform="rotate(40.10704565915762)">
<text x="717.72" y="536.92" transform="scale(1, -1)"
	style="font-family:Liberation Serif;font-variant:normal;font-weight:normal;font-style:normal;font-size:10px">github.com/attwad/gocvss</text>
</g>
<g transform="rotate(40.10704565915762)">
<text x="709.78" y="576.54" transform="scale(1, -1)"
	style="font-family:Liberation Serif;font-variant:normal;font-weight:normal;font-style:normal;font-size:10px">github.com/facebookincubator/nvdtools</text>
</g>
<g transform="rotate(40.10704565915762)">
<text x="800.69" y="616.17" transform="scale(1, -1)"
	style="font-family:Liberation Serif;font-variant:normal;font-weight:normal;font-style:normal;font-size:10px">github.com/pandatix/go-cvss</text>
</g>
<g transform="rotate(40.10704565915762)">
<text x="858.3" y="655.79" transform="scale(1, -1)"
	style="font-family:Liberation Serif;font-variant:normal;font-weight:normal;font-style:normal;font-size:10px">github.com/quay/claircore</text>
</g>
<g transform="rotate(40.10704565915762)">
<text x="893.1" y="695.41" transform="scale(1, -1)"
	style="font-family:Liberation Serif;font-variant:normal;font-weight:normal;font-style:normal;font-size:10px">github.com/umisama/go-cvss</text>
</g>
<g transform="rotate(40.10704565915762)">
<text x="962.36" y="735.03" transform="scale(1, -1)"
	style="font-family:Liberation Serif;font-variant:normal;font-weight:normal;font-style:normal;font-size:10px">github.com/zntrio/mitre</text>
</g>
<g transform="rotate(90)">
<text x="178.85" y="873.39" transform="scale(1, -1)"
	style="font-family:Liberation Serif;font-variant:normal;font-weight:normal;font-style:normal;font-size:12px">Log of % per the max value of this metric.</text>
</g>
<text x="879.88" y="-127.35" transform="scale(1, -1)"
	style="font-family:Liberation Serif;font-variant:normal;font-weight:normal;font-style:normal;font-size:10px">0</text>
<text x="879.88" y="-258.66" transform="scale(1, -1)"
	style="font-family:Liberation Serif;font-variant:normal;font-weight:normal;font-style:normal;font-size:10px">2</text>
<text x="879.88" y="-389.98" transform="scale(1, -1)"
	style="font-family:Liberation Serif;font-variant:normal;font-weight:normal;font-style:normal;font-size:10px">4</text>
<path d="M887.38,129.63L895.38,129.63" style="fill:none;stroke:#000000;stroke-width:0.5" />
<path d="M887.38,260.95L895.38,260.95" style="fill:none;stroke:#000000;stroke-width:0.5" />
<path d="M887.38,392.27L895.38,392.27" style="fill:none;stroke:#000000;stroke-width:0.5" />
<path d="M891.38,195.29L895.38,195.29" style="fill:none;stroke:#000000;stroke-width:0.5" />
<path d="M891.38,326.61L895.38,326.61" style="fill:none;stroke:#000000;stroke-width:0.5" />
<path d="M895.38,129.63L895.38,432" style="fill:none;stroke:#000000;stroke-width:0.5" />
<path d="M948.49,129.63L948.49,266.14L960.49,266.14L960.49,129.63Z" style="fill:#4272C5" />
<path d="M1010,129.63L1010,432L1022,432L1022,129.63Z" style="fill:#4272C5" />
<path d="M1071.5,129.63L1071.5,243.68L1083.5,243.68L1083.5,129.63Z" style="fill:#4272C5" />
<path d="M1133,129.63L1133,334.68L1145,334.68L1145,129.63Z" style="fill:#4272C5" />
<path d="M1194.5,129.63L1194.5,253.76L1206.5,253.76L1206.5,129.63Z" style="fill:#4272C5" />
<path d="M1256,129.63L1256,326.59L1268,326.59L1268,129.63Z" style="fill:#4272C5" />
<path d="M962.49,129.63L962.49,275.03L974.49,275.03L974.49,129.63Z" style="fill:#E67F34" />
<path d="M1024,129.63L1024,432L1036,432L1036,129.63Z" style="fill:#E67F34" />
<path d="M1085.5,129.63L1085.5,184L1097.5,184L1097.5,129.63Z" style="fill:#E67F34" />
<path d="M1147,129.63L1147,295.94L1159,295.94L1159,129.63Z" style="fill:#E67F34" />
<path d="M1208.5,129.63L1208.5,184L1220.5,184L1220.5,129.63Z" style="fill:#E67F34" />
<path d="M1270,129.63L1270,275.03L1282,275.03L1282,129.63Z" style="fill:#E67F34" />
<path d="M976.49,129.63L976.49,314.36L988.49,314.36L988.49,129.63Z" style="fill:#B4B6B9" />
<path d="M1038,129.63L1038,432L1050,432L1050,129.63Z" style="fill:#B4B6B9" />
<path d="M1099.5,129.63L1099.5,268.85L1111.5,268.85L1111.5,129.63Z" style="fill:#B4B6B9" />
<path d="M1161,129.63L1161,420.03L1173,420.03L1173,129.63Z" style="fill:#B4B6B9" />
<path d="M1222.5,129.63L1222.5,268.85L1234.5,268.85L1234.5,129.63Z" style="fill:#B4B6B9" />
<path d="M1284,129.63L1284,396.61L1296,396.61L1296,129.63Z" style="fill:#B4B6B9" />
<path d="M1276,419.22L1276,429.4L1296,429.4L1296,419.22Z" style="fill:#4272C5" />
<text x="1247" y="-421.83" transform="scale(1, -1)"
	style="font-family:Liberation Serif;font-variant:normal;font-weight:normal;font-style:normal;font-size:12px">ns/op</text>
<path d="M1276,409.04L1276,419.22L1296,419.22L1296,409.04Z" style="fill:#E67F34" />
<text x="1249.7" y="-411.64" transform="scale(1, -1)"
	style="font-family:Liberation Serif;font-variant:normal;font-weight:normal;font-style:normal;font-size:12px">B/op</text>
<path d="M1276,398.85L1276,409.04L1296,409.04L1296,398.85Z" style="fill:#B4B6B9" />
<text x="1229.7" y="-401.46" transform="scale(1, -1)"
	style="font-family:Liberation Serif;font-variant:normal;font-weight:normal;font-style:normal;font-size:12px">allocs/op</text>
</g>
</svg>
