<?xml version="1.0"?>
<!-- Generated by SVGo and Plotinum VG -->
<svg width="1296pt" height="432pt" viewBox="0 0 1296 432"
	xmlns="http://www.w3.org/2000/svg"
	xmlns:xlink="http://www.w3.org/1999/xlink">
<g transform="scale(1, -1) translate(0, -432)">
<path d="M0,0L432,0L432,432L0,432Z" style="fill:#FFFFFF" />
<text x="235.7" y="-3.9023" transform="scale(1, -1)"
	style="font-family:Liberation Serif;font-variant:normal;font-weight:normal;font-style:normal;font-size:12px">BaseScore</text>
<g transform="rotate(40.10704565915762)">
<text x="147.3" y="102.78" transform="scale(1, -1)"
	style="font-family:Liberation Serif;font-variant:normal;font-weight:normal;font-style:normal;font-size:10px">github.com/pandatix/go-cvss</text>
</g>
<g transform="rotate(90)">
<text x="164.72" y="9.3867" transform="scale(1, -1)"
	style="font-family:Liberation Serif;font-variant:normal;font-weight:normal;font-style:normal;font-size:12px">Log of % per the max value of this metric.</text>
</g>
<text x="15.885" y="-99.084" transform="scale(1, -1)"
	style="font-family:Liberation Serif;font-variant:normal;font-weight:normal;font-style:normal;font-size:10px">0</text>
<text x="15.885" y="-242.68" transform="scale(1, -1)"
	style="font-family:Liberation Serif;font-variant:normal;font-weight:normal;font-style:normal;font-size:10px">2</text>
<text x="15.885" y="-386.27" transform="scale(1, -1)"
	style="font-family:Liberation Serif;font-variant:normal;font-weight:normal;font-style:normal;font-size:10px">4</text>
<path d="M23.385,101.37L31.385,101.37" style="fill:none;stroke:#000000;stroke-width:0.5" />
<path d="M23.385,244.96L31.385,244.96" style="fill:none;stroke:#000000;stroke-width:0.5" />
<path d="M23.385,388.55L31.385,388.55" style="fill:none;stroke:#000000;stroke-width:0.5" />
<path d="M27.385,173.16L31.385,173.16" style="fill:none;stroke:#000000;stroke-width:0.5" />
<path d="M27.385,316.76L31.385,316.76" style="fill:none;stroke:#000000;stroke-width:0.5" />
<path d="M31.385,101.37L31.385,432" style="fill:none;stroke:#000000;stroke-width:0.5" />
<path d="M241.02,101.37L241.02,432L253.02,432L253.02,101.37Z" style="fill:#4272C5" />
<path d="M255.02,101.37L255.02,101.37L267.02,101.37L267.02,101.37Z" style="fill:#E67F34" />
<path d="M269.02,101.37L269.02,101.37L281.02,101.37L281.02,101.37Z" style="fill:#B4B6B9" />
<path d="M412,419.22L412,429.4L432,429.4L432,419.22Z" style="fill:#4272C5" />
<text x="383" y="-421.83" transform="scale(1, -1)"
	style="font-family:Liberation Serif;font-variant:normal;font-weight:normal;font-style:normal;font-size:12px">ns/op</text>
<path d="M412,409.04L412,419.22L432,419.22L432,409.04Z" style="fill:#E67F34" />
<text x="385.66" y="-411.64" transform="scale(1, -1)"
	style="font-family:Liberation Serif;font-variant:normal;font-weight:normal;font-style:normal;font-size:12px">B/op</text>
<path d="M412,398.85L412,409.04L432,409.04L432,398.85Z" style="fill:#B4B6B9" />
<text x="365.68" y="-401.46" transform="scale(1, -1)"
	style="font-family:Liberation Serif;font-variant:normal;font-weight:normal;font-style:normal;font-size:12px">allocs/op</text>
<path d="M432,0L864,0L864,432L432,432Z" style="fill:#FFFFFF" />
<text x="664.37" y="-3.9023" transform="scale(1, -1)"
	style="font-family:Liberation Serif;font-variant:normal;font-weight:normal;font-style:normal;font-size:12px">ParseVector</text>
<g transform="rotate(40.10704565915762)">
<text x="362.24" y="283.82" transform="scale(1, -1)"
	style="font-family:Liberation Serif;font-variant:normal;font-weight:normal;font-style:normal;font-size:10px">github.com/pandatix/go-cvss</text>
</g>
<g transform="rotate(40.10704565915762)">
<text x="603.76" y="478.34" transform="scale(1, -1)"
	style="font-family:Liberation Serif;font-variant:normal;font-weight:normal;font-style:normal;font-size:10px">github.com/quay/claircore</text>
</g>
<g transform="rotate(90)">
<text x="164.72" y="441.39" transform="scale(1, -1)"
	style="font-family:Liberation Serif;font-variant:normal;font-weight:normal;font-style:normal;font-size:12px">Log of % per the max value of this metric.</text>
</g>
<text x="447.88" y="-99.084" transform="scale(1, -1)"
	style="font-family:Liberation Serif;font-variant:normal;font-weight:normal;font-style:normal;font-size:10px">0</text>
<text x="447.88" y="-242.68" transform="scale(1, -1)"
	style="font-family:Liberation Serif;font-variant:normal;font-weight:normal;font-style:normal;font-size:10px">2</text>
<text x="447.88" y="-386.27" transform="scale(1, -1)"
	style="font-family:Liberation Serif;font-variant:normal;font-weight:normal;font-style:normal;font-size:10px">4</text>
<path d="M455.38,101.37L463.38,101.37" style="fill:none;stroke:#000000;stroke-width:0.5" />
<path d="M455.38,244.96L463.38,244.96" style="fill:none;stroke:#000000;stroke-width:0.5" />
<path d="M455.38,388.55L463.38,388.55" style="fill:none;stroke:#000000;stroke-width:0.5" />
<path d="M459.38,173.16L463.38,173.16" style="fill:none;stroke:#000000;stroke-width:0.5" />
<path d="M459.38,316.76L463.38,316.76" style="fill:none;stroke:#000000;stroke-width:0.5" />
<path d="M463.38,101.37L463.38,432" style="fill:none;stroke:#000000;stroke-width:0.5" />
<path d="M522.04,101.37L522.04,432L534.04,432L534.04,101.37Z" style="fill:#4272C5" />
<path d="M824,101.37L824,101.37L836,101.37L836,101.37Z" style="fill:#4272C5" />
<path d="M536.04,101.37L536.04,432L548.04,432L548.04,101.37Z" style="fill:#E67F34" />
<path d="M838,101.37L838,101.37L850,101.37L850,101.37Z" style="fill:#E67F34" />
<path d="M550.04,101.37L550.04,432L562.04,432L562.04,101.37Z" style="fill:#B4B6B9" />
<path d="M852,101.37L852,101.37L864,101.37L864,101.37Z" style="fill:#B4B6B9" />
<path d="M844,419.22L844,429.4L864,429.4L864,419.22Z" style="fill:#4272C5" />
<text x="815" y="-421.83" transform="scale(1, -1)"
	style="font-family:Liberation Serif;font-variant:normal;font-weight:normal;font-style:normal;font-size:12px">ns/op</text>
<path d="M844,409.04L844,419.22L864,419.22L864,409.04Z" style="fill:#E67F34" />
<text x="817.66" y="-411.64" transform="scale(1, -1)"
	style="font-family:Liberation Serif;font-variant:normal;font-weight:normal;font-style:normal;font-size:12px">B/op</text>
<path d="M844,398.85L844,409.04L864,409.04L864,398.85Z" style="fill:#B4B6B9" />
<text x="797.68" y="-401.46" transform="scale(1, -1)"
	style="font-family:Liberation Serif;font-variant:normal;font-weight:normal;font-style:normal;font-size:12px">allocs/op</text>
<path d="M864,0L1296,0L1296,432L864,432Z" style="fill:#FFFFFF" />
<text x="1109.4" y="-3.9023" transform="scale(1, -1)"
	style="font-family:Liberation Serif;font-variant:normal;font-weight:normal;font-style:normal;font-size:12px">Vector</text>
<g transform="rotate(40.10704565915762)">
<text x="692.65" y="562.12" transform="scale(1, -1)"
	style="font-family:Liberation Serif;font-variant:normal;font-weight:normal;font-style:normal;font-size:10px">github.com/pandatix/go-cvss</text>
</g>
<g transform="rotate(40.10704565915762)">
<text x="934.18" y="756.65" transform="scale(1, -1)"
	style="font-family:Liberation Serif;font-variant:normal;font-weight:normal;font-style:normal;font-size:10px">github.com/quay/claircore</text>
</g>
<g transform="rotate(90)">
<text x="164.72" y="873.39" transform="scale(1, -1)"
	style="font-family:Liberation Serif;font-variant:normal;font-weight:normal;font-style:normal;font-size:12px">Log of % per the max value of this metric.</text>
</g>
<text x="879.88" y="-99.084" transform="scale(1, -1)"
	style="font-family:Liberation Serif;font-variant:normal;font-weight:normal;font-style:normal;font-size:10px">0</text>
<text x="879.88" y="-242.68" transform="scale(1, -1)"
	style="font-family:Liberation Serif;font-variant:normal;font-weight:normal;font-style:normal;font-size:10px">2</text>
<text x="879.88" y="-386.27" transform="scale(1, -1)"
	style="font-family:Liberation Serif;font-variant:normal;font-weight:normal;font-style:normal;font-size:10px">4</text>
<path d="M887.38,101.37L895.38,101.37" style="fill:none;stroke:#000000;stroke-width:0.5" />
<path d="M887.38,244.96L895.38,244.96" style="fill:none;stroke:#000000;stroke-width:0.5" />
<path d="M887.38,388.55L895.38,388.55" style="fill:none;stroke:#000000;stroke-width:0.5" />
<path d="M891.38,173.16L895.38,173.16" style="fill:none;stroke:#000000;stroke-width:0.5" />
<path d="M891.38,316.76L895.38,316.76" style="fill:none;stroke:#000000;stroke-width:0.5" />
<path d="M895.38,101.37L895.38,432" style="fill:none;stroke:#000000;stroke-width:0.5" />
<path d="M954.04,101.37L954.04,359.82L966.04,359.82L966.04,101.37Z" style="fill:#4272C5" />
<path d="M1256,101.37L1256,432L1268,432L1268,101.37Z" style="fill:#4272C5" />
<path d="M968.04,101.37L968.04,340.79L980.04,340.79L980.04,101.37Z" style="fill:#E67F34" />
<path d="M1270,101.37L1270,432L1282,432L1282,101.37Z" style="fill:#E67F34" />
<path d="M982.04,101.37L982.04,237.57L994.04,237.57L994.04,101.37Z" style="fill:#B4B6B9" />
<path d="M1284,101.37L1284,432L1296,432L1296,101.37Z" style="fill:#B4B6B9" />
<path d="M1276,419.22L1276,429.4L1296,429.4L1296,419.22Z" style="fill:#4272C5" />
<text x="1247" y="-421.83" transform="scale(1, -1)"
	style="font-family:Liberation Serif;font-variant:normal;font-weight:normal;font-style:normal;font-size:12px">ns/op</text>
<path d="M1276,409.04L1276,419.22L1296,419.22L1296,409.04Z" style="fill:#E67F34" />
<text x="1249.7" y="-411.64" transform="scale(1, -1)"
	style="font-family:Liberation Serif;font-variant:normal;font-weight:normal;font-style:normal;font-size:12px">B/op</text>
<path d="M1276,398.85L1276,409.04L1296,409.04L1296,398.85Z" style="fill:#B4B6B9" />
<text x="1229.7" y="-401.46" transform="scale(1, -1)"
	style="font-family:Liberation Serif;font-variant:normal;font-weight:normal;font-style:normal;font-size:12px">allocs/op</text>
</g>
</svg>
