<?xml version="1.0"?>
<!-- Generated by SVGo and Plotinum VG -->
<svg width="1296pt" height="432pt" viewBox="0 0 1296 432"
	xmlns="http://www.w3.org/2000/svg"
	xmlns:xlink="http://www.w3.org/1999/xlink">
<g transform="scale(1, -1) translate(0, -432)">
<path d="M0,0L432,0L432,432L0,432Z" style="fill:#FFFFFF" />
<text x="232.65" y="-3.9023" transform="scale(1, -1)"
	style="font-family:Liberation Serif;font-variant:normal;font-weight:normal;font-style:normal;font-size:12px">BaseScore</text>
<g transform="rotate(40.10704565915762)">
<text x="57.573" y="-20.034" transform="scale(1, -1)"
	style="font-family:Liberation Serif;font-variant:normal;font-weight:normal;font-style:normal;font-size:10px">github.com/bunji2/cvssv3</text>
</g>
<g transform="rotate(40.10704565915762)">
<text x="80.033" y="46.119" transform="scale(1, -1)"
	style="font-family:Liberation Serif;font-variant:normal;font-weight:normal;font-style:normal;font-size:10px">github.com/facebookincubator/nvdtools</text>
</g>
<g transform="rotate(40.10704565915762)">
<text x="214.11" y="112.27" transform="scale(1, -1)"
	style="font-family:Liberation Serif;font-variant:normal;font-weight:normal;font-style:normal;font-size:10px">github.com/goark/go-cvss</text>
</g>
<g transform="rotate(40.10704565915762)">
<text x="280.98" y="178.42" transform="scale(1, -1)"
	style="font-family:Liberation Serif;font-variant:normal;font-weight:normal;font-style:normal;font-size:10px">github.com/pandatix/go-cvss</text>
</g>
<g transform="rotate(90)">
<text x="178.85" y="9.3867" transform="scale(1, -1)"
	style="font-family:Liberation Serif;font-variant:normal;font-weight:normal;font-style:normal;font-size:12px">Log of % per the max value of this metric.</text>
</g>
<text x="15.885" y="-127.35" transform="scale(1, -1)"
	style="font-family:Liberation Serif;font-variant:normal;font-weight:normal;font-style:normal;font-size:10px">0</text>
<text x="15.885" y="-258.66" transform="scale(1, -1)"
	style="font-family:Liberation Serif;font-variant:normal;font-weight:normal;font-style:normal;font-size:10px">2</text>
<text x="15.885" y="-389.98" transform="scale(1, -1)"
	style="font-family:Liberation Serif;font-variant:normal;font-weight:normal;font-style:normal;font-size:10px">4</text>
<path d="M23.385,129.63L31.385,129.63" style="fill:none;stroke:#000000;stroke-width:0.5" />
<path d="M23.385,260.95L31.385,260.95" style="fill:none;stroke:#000000;stroke-width:0.5" />
<path d="M23.385,392.27L31.385,392.27" style="fill:none;stroke:#000000;stroke-width:0.5" />
<path d="M27.385,195.29L31.385,195.29" style="fill:none;stroke:#000000;stroke-width:0.5" />
<path d="M27.385,326.61L31.385,326.61" style="fill:none;stroke:#000000;stroke-width:0.5" />
<path d="M31.385,129.63L31.385,432" style="fill:none;stroke:#000000;stroke-width:0.5" />
<path d="M83.939,129.63L83.939,415.59L95.939,415.59L95.939,129.63Z" style="fill:#4272C5" />
<path d="M186.63,129.63L186.63,432L198.63,432L198.63,129.63Z" style="fill:#4272C5" />
<path d="M289.31,129.63L289.31,428.27L301.31,428.27L301.31,129.63Z" style="fill:#4272C5" />
<path d="M392,129.63L392,372.26L404,372.26L404,129.63Z" style="fill:#4272C5" />
<path d="M97.939,129.63L97.939,129.63L109.94,129.63L109.94,129.63Z" style="fill:#E67F34" />
<path d="M200.63,129.63L200.63,129.63L212.63,129.63L212.63,129.63Z" style="fill:#E67F34" />
<path d="M303.31,129.63L303.31,129.63L315.31,129.63L315.31,129.63Z" style="fill:#E67F34" />
<path d="M406,129.63L406,129.63L418,129.63L418,129.63Z" style="fill:#E67F34" />
<path d="M111.94,129.63L111.94,129.63L123.94,129.63L123.94,129.63Z" style="fill:#B4B6B9" />
<path d="M214.63,129.63L214.63,129.63L226.63,129.63L226.63,129.63Z" style="fill:#B4B6B9" />
<path d="M317.31,129.63L317.31,129.63L329.31,129.63L329.31,129.63Z" style="fill:#B4B6B9" />
<path d="M420,129.63L420,129.63L432,129.63L432,129.63Z" style="fill:#B4B6B9" />
<path d="M412,419.22L412,429.4L432,429.4L432,419.22Z" style="fill:#4272C5" />
<text x="383" y="-421.83" transform="scale(1, -1)"
	style="font-family:Liberation Serif;font-variant:normal;font-weight:normal;font-style:normal;font-size:12px">ns/op</text>
<path d="M412,409.04L412,419.22L432,419.22L432,409.04Z" style="fill:#E67F34" />
<text x="385.66" y="-411.64" transform="scale(1, -1)"
	style="font-family:Liberation Serif;font-variant:normal;font-weight:normal;font-style:normal;font-size:12px">B/op</text>
<path d="M412,398.85L412,409.04L432,409.04L432,398.85Z" style="fill:#B4B6B9" />
<text x="365.68" y="-401.46" transform="scale(1, -1)"
	style="font-family:Liberation Serif;font-variant:normal;font-weight:normal;font-style:normal;font-size:12px">allocs/op</text>
<path d="M432,0L864,0L864,432L432,432Z" style="fill:#FFFFFF" />
<text x="661.31" y="-3.9023" transform="scale(1, -1)"
	style="font-family:Liberation Serif;font-variant:normal;font-weight:normal;font-style:normal;font-size:12px">ParseVector</text>
<g transform="rotate(40.10704565915762)">
<text x="387.98" y="258.27" transform="scale(1, -1)"
	style="font-family:Liberation Serif;font-variant:normal;font-weight:normal;font-style:normal;font-size:10px">github.com/bunji2/cvssv3</text>
</g>
<g transform="rotate(40.10704565915762)">
<text x="379.03" y="297.96" transform="scale(1, -1)"
	style="font-family:Liberation Serif;font-variant:normal;font-weight:normal;font-style:normal;font-size:10px">github.com/facebookincubator/nvdtools</text>
</g>
<g transform="rotate(40.10704565915762)">
<text x="481.69" y="337.65" transform="scale(1, -1)"
	style="font-family:Liberation Serif;font-variant:normal;font-weight:normal;font-style:normal;font-size:10px">github.com/goark/go-cvss</text>
</g>
<g transform="rotate(40.10704565915762)">
<text x="517.15" y="377.34" transform="scale(1, -1)"
	style="font-family:Liberation Serif;font-variant:normal;font-weight:normal;font-style:normal;font-size:10px">github.com/pandatix/go-cvss</text>
</g>
<g transform="rotate(40.10704565915762)">
<text x="574.85" y="417.03" transform="scale(1, -1)"
	style="font-family:Liberation Serif;font-variant:normal;font-weight:normal;font-style:normal;font-size:10px">github.com/quay/claircore</text>
</g>
<g transform="rotate(40.10704565915762)">
<text x="616.39" y="456.73" transform="scale(1, -1)"
	style="font-family:Liberation Serif;font-variant:normal;font-weight:normal;font-style:normal;font-size:10px">github.com/scagogogo/cvss</text>
</g>
<g transform="rotate(90)">
<text x="178.85" y="441.39" transform="scale(1, -1)"
	style="font-family:Liberation Serif;font-variant:normal;font-weight:normal;font-style:normal;font-size:12px">Log of % per the max value of this metric.</text>
</g>
<text x="447.88" y="-127.35" transform="scale(1, -1)"
	style="font-family:Liberation Serif;font-variant:normal;font-weight:normal;font-style:normal;font-size:10px">0</text>
<text x="447.88" y="-258.66" transform="scale(1, -1)"
	style="font-family:Liberation Serif;font-variant:normal;font-weight:normal;font-style:normal;font-size:10px">2</text>
<text x="447.88" y="-389.98" transform="scale(1, -1)"
	style="font-family:Liberation Serif;font-variant:normal;font-weight:normal;font-style:normal;font-size:10px">4</text>
<path d="M455.38,129.63L463.38,129.63" style="fill:none;stroke:#000000;stroke-width:0.5" />
<path d="M455.38,260.95L463.38,260.95" style="fill:none;stroke:#000000;stroke-width:0.5" />
<path d="M455.38,392.27L463.38,392.27" style="fill:none;stroke:#000000;stroke-width:0.5" />
<path d="M459.38,195.29L463.38,195.29" style="fill:none;stroke:#000000;stroke-width:0.5" />
<path d="M459.38,326.61L463.38,326.61" style="fill:none;stroke:#000000;stroke-width:0.5" />
<path d="M463.38,129.63L463.38,432" style="fill:none;stroke:#000000;stroke-width:0.5" />
<path d="M515.94,129.63L515.94,432L527.94,432L527.94,129.63Z" style="fill:#4272C5" />
<path d="M577.55,129.63L577.55,247.49L589.55,247.49L589.55,129.63Z" style="fill:#4272C5" />
<path d="M639.16,129.63L639.16,265.24L651.16,265.24L651.16,129.63Z" style="fill:#4272C5" />
<path d="M700.78,129.63L700.78,129.63L712.78,129.63L712.78,129.63Z" style="fill:#4272C5" />
<path d="M762.39,129.63L762.39,129.63L774.39,129.63L774.39,129.63Z" style="fill:#4272C5" />
<path d="M824,129.63L824,223.05L836,223.05L836,129.63Z" style="fill:#4272C5" />
<path d="M529.94,129.63L529.94,432L541.94,432L541.94,129.63Z" style="fill:#E67F34" />
<path d="M591.55,129.63L591.55,238.62L603.55,238.62L603.55,129.63Z" style="fill:#E67F34" />
<path d="M653.16,129.63L653.16,222.48L665.16,222.48L665.16,129.63Z" style="fill:#E67F34" />
<path d="M714.78,129.63L714.78,129.63L726.78,129.63L726.78,129.63Z" style="fill:#E67F34" />
<path d="M776.39,129.63L776.39,129.63L788.39,129.63L788.39,129.63Z" style="fill:#E67F34" />
<path d="M838,129.63L838,183.48L850,183.48L850,129.63Z" style="fill:#E67F34" />
<path d="M543.94,129.63L543.94,432L555.94,432L555.94,129.63Z" style="fill:#B4B6B9" />
<path d="M605.55,129.63L605.55,252.04L617.55,252.04L617.55,129.63Z" style="fill:#B4B6B9" />
<path d="M667.16,129.63L667.16,274.91L679.16,274.91L679.16,129.63Z" style="fill:#B4B6B9" />
<path d="M728.78,129.63L728.78,129.63L740.78,129.63L740.78,129.63Z" style="fill:#B4B6B9" />
<path d="M790.39,129.63L790.39,129.63L802.39,129.63L802.39,129.63Z" style="fill:#B4B6B9" />
<path d="M852,129.63L852,329.43L864,329.43L864,129.63Z" style="fill:#B4B6B9" />
<path d="M844,419.22L844,429.4L864,429.4L864,419.22Z" style="fill:#4272C5" />
<text x="815" y="-421.83" transform="scale(1, -1)"
	style="font-family:Liberation Serif;font-variant:normal;font-weight:normal;font-style:normal;font-size:12px">ns/op</text>
<path d="M844,409.04L844,419.22L864,419.22L864,409.04Z" style="fill:#E67F34" />
<text x="817.66" y="-411.64" transform="scale(1, -1)"
	style="font-family:Liberation Serif;font-variant:normal;font-weight:normal;font-style:normal;font-size:12px">B/op</text>
<path d="M844,398.85L844,409.04L864,409.04L864,398.85Z" style="fill:#B4B6B9" />
<text x="797.68" y="-401.46" transform="scale(1, -1)"
	style="font-family:Liberation Serif;font-variant:normal;font-weight:normal;font-style:normal;font-size:12px">allocs/op</text>
<path d="M864,0L1296,0L1296,432L864,432Z" style="fill:#FFFFFF" />
<text x="1106.3" y="-3.9023" transform="scale(1, -1)"
	style="font-family:Liberation Serif;font-variant:normal;font-weight:normal;font-style:normal;font-size:12px">Vector</text>
<g transform="rotate(40.10704565915762)">
<text x="718.4" y="536.57" transform="scale(1, -1)"
	style="font-family:Liberation Serif;font-variant:normal;font-weight:normal;font-style:normal;font-size:10px">github.com/bunji2/cvssv3</text>
</g>
<g transform="rotate(40.10704565915762)">
<text x="709.44" y="576.26" transform="scale(1, -1)"
	style="font-family:Liberation Serif;font-variant:normal;font-weight:normal;font-style:normal;font-size:10px">github.com/facebookincubator/nvdtools</text>
</g>
<g transform="rotate(40.10704565915762)">
<text x="812.1" y="615.95" transform="scale(1, -1)"
	style="font-family:Liberation Serif;font-variant:normal;font-weight:normal;font-style:normal;font-size:10px">github.com/goark/go-cvss</text>
</g>
<g transform="rotate(40.10704565915762)">
<text x="847.56" y="655.65" transform="scale(1, -1)"
	style="font-family:Liberation Serif;font-variant:normal;font-weight:normal;font-style:normal;font-size:10px">github.com/pandatix/go-cvss</text>
</g>
<g transform="rotate(40.10704565915762)">
<text x="905.26" y="695.34" transform="scale(1, -1)"
	style="font-family:Liberation Serif;font-variant:normal;font-weight:normal;font-style:normal;font-size:10px">github.com/quay/claircore</text>
</g>
<g transform="rotate(40.10704565915762)">
<text x="946.8" y="735.03" transform="scale(1, -1)"
	style="font-family:Liberation Serif;font-variant:normal;font-weight:normal;font-style:normal;font-size:10px">github.com/scagogogo/cvss</text>
</g>
<g transform="rotate(90)">
<text x="178.85" y="873.39" transform="scale(1, -1)"
	style="font-family:Liberation Serif;font-variant:normal;font-weight:normal;font-style:normal;font-size:12px">Log of % per the max value of this metric.</text>
</g>
<text x="879.88" y="-127.35" transform="scale(1, -1)"
	style="font-family:Liberation Serif;font-variant:normal;font-weight:normal;font-style:normal;font-size:10px">0</text>
<text x="879.88" y="-258.66" transform="scale(1, -1)"
	style="font-family:Liberation Serif;font-variant:normal;font-weight:normal;font-style:normal;font-size:10px">2</text>
<text x="879.88" y="-389.98" transform="scale(1, -1)"
	style="font-family:Liberation Serif;font-variant:normal;font-weight:normal;font-style:normal;font-size:10px">4</text>
<path d="M887.38,129.63L895.38,129.63" style="fill:none;stroke:#000000;stroke-width:0.5" />
<path d="M887.38,260.95L895.38,260.95" style="fill:none;stroke:#000000;stroke-width:0.5" />
<path d="M887.38,392.27L895.38,392.27" style="fill:none;stroke:#000000;stroke-width:0.5" />
<path d="M891.38,195.29L895.38,195.29" style="fill:none;stroke:#000000;stroke-width:0.5" />
<path d="M891.38,326.61L895.38,326.61" style="fill:none;stroke:#000000;stroke-width:0.5" />
<path d="M895.38,129.63L895.38,432" style="fill:none;stroke:#000000;stroke-width:0.5" />
<path d="M947.94,129.63L947.94,294.25L959.94,294.25L959.94,129.63Z" style="fill:#4272C5" />
<path d="M1009.6,129.63L1009.6,432L1021.6,432L1021.6,129.63Z" style="fill:#4272C5" />
<path d="M1071.2,129.63L1071.2,383.89L1083.2,383.89L1083.2,129.63Z" style="fill:#4272C5" />
<path d="M1132.8,129.63L1132.8,230.76L1144.8,230.76L1144.8,129.63Z" style="fill:#4272C5" />
<path d="M1194.4,129.63L1194.4,318.76L1206.4,318.76L1206.4,129.63Z" style="fill:#4272C5" />
<path d="M1256,129.63L1256,374.14L1268,374.14L1268,129.63Z" style="fill:#4272C5" />
<path d="M961.94,129.63L961.94,305.54L973.94,305.54L973.94,129.63Z" style="fill:#E67F34" />
<path d="M1023.6,129.63L1023.6,432L1035.6,432L1035.6,129.63Z" style="fill:#E67F34" />
<path d="M1085.2,129.63L1085.2,363.92L1097.2,363.92L1097.2,129.63Z" style="fill:#E67F34" />
<path d="M1146.8,129.63L1146.8,199.86L1158.8,199.86L1158.8,129.63Z" style="fill:#E67F34" />
<path d="M1208.4,129.63L1208.4,296.14L1220.4,296.14L1220.4,129.63Z" style="fill:#E67F34" />
<path d="M1270,129.63L1270,357.31L1282,357.31L1282,129.63Z" style="fill:#E67F34" />
<path d="M975.94,129.63L975.94,292.79L987.94,292.79L987.94,129.63Z" style="fill:#B4B6B9" />
<path d="M1037.6,129.63L1037.6,398.46L1049.6,398.46L1049.6,129.63Z" style="fill:#B4B6B9" />
<path d="M1099.2,129.63L1099.2,398.46L1111.2,398.46L1111.2,129.63Z" style="fill:#B4B6B9" />
<path d="M1160.8,129.63L1160.8,220.65L1172.8,220.65L1172.8,129.63Z" style="fill:#B4B6B9" />
<path d="M1222.4,129.63L1222.4,389.06L1234.4,389.06L1234.4,129.63Z" style="fill:#B4B6B9" />
<path d="M1284,129.63L1284,432L1296,432L1296,129.63Z" style="fill:#B4B6B9" />
<path d="M1276,419.22L1276,429.4L1296,429.4L1296,419.22Z" style="fill:#4272C5" />
<text x="1247" y="-421.83" transform="scale(1, -1)"
	style="font-family:Liberation Serif;font-variant:normal;font-weight:normal;font-style:normal;font-size:12px">ns/op</text>
<path d="M1276,409.04L1276,419.22L1296,419.22L1296,409.04Z" style="fill:#E67F34" />
<text x="1249.7" y="-411.64" transform="scale(1, -1)"
	style="font-family:Liberation Serif;font-variant:normal;font-weight:normal;font-style:normal;font-size:12px">B/op</text>
<path d="M1276,398.85L1276,409.04L1296,409.04L1296,398.85Z" style="fill:#B4B6B9" />
<text x="1229.7" y="-401.46" transform="scale(1, -1)"
	style="font-family:Liberation Serif;font-variant:normal;font-weight:normal;font-style:normal;font-size:12px">allocs/op</text>
</g>
</svg>
